<svg width="88" height="88" viewBox="0 0 88 88" fill="none" xmlns="http://www.w3.org/2000/svg">
<g clip-path="url(#clip0)">
<path d="M83.072 81.048C78.5253 78.9213 74.4187 75.988 70.3853 74.6387C70.344 74.3096 70.2003 74.0018 69.9747 73.7587C67.2962 71.157 63.8398 69.5035 60.1333 69.0507V65.6773C64.9733 60.8667 64.9587 56.408 64.768 52.1107C67.6658 50.0813 69.6182 46.9649 70.18 43.472C70.7667 38.0013 70.18 34.804 68.596 33.9827C67.8787 33.6123 67.0404 33.5539 66.2787 33.8213C66.2787 32.4867 66.2787 31.0053 66.2787 29.3333H76.2667C77.0767 29.3333 77.7333 28.6767 77.7333 27.8667C77.7333 23.0066 73.7934 19.0667 68.9333 19.0667C68.1626 8.30288 59.1913 -0.0275545 48.4 7.15778e-06H39.6C28.8369 0.0109552 19.9088 8.33106 19.14 19.0667C16.7934 19.0471 14.5362 19.9656 12.87 21.6181C11.2038 23.2705 10.2666 25.52 10.2667 27.8667C10.2667 28.6767 10.9233 29.3333 11.7333 29.3333H21.7213V33.8213C20.9596 33.5539 20.1213 33.6123 19.404 33.9827C17.7613 34.804 17.2333 38.0013 17.82 43.516C18.4055 46.9881 20.3539 50.0823 23.232 52.1107C23.0413 56.408 23.0267 60.9107 27.8667 65.6773V69.0507C24.1602 69.5035 20.7038 71.157 18.0253 73.7587C17.7997 74.0018 17.656 74.3096 17.6147 74.6387C14.4173 75.7093 13.0387 76.78 5.99867 80.5053C3.168 81.972 0.132 82.852 0 86.46C0 87.27 0.656649 87.9267 1.46667 87.9267H86.5333C87.3434 87.9267 88 87.27 88 86.46C87.912 83.4974 85.7853 82.324 83.072 81.048ZM80.6667 83.116C81.9135 83.6715 83.115 84.3237 84.26 85.0667H65.3107C67.2392 82.8369 68.7318 80.2648 69.7107 77.484C72.4533 78.4667 73.4947 79.332 80.6667 83.116ZM44 85.0667C36.5053 85.0667 31.2253 74.0227 30.8 70.2973V68.9333C34.1587 73.3333 35.3467 77.7333 41.0667 77.7333C49.6027 77.7333 50.8933 78.5254 55.1613 71.9547C55.7773 71.016 56.4373 70.0187 57.2147 69.0213V70.488C57.2 72.8347 51.7293 85.0667 44 85.0667ZM67.1587 36.6667C67.5355 38.8082 67.5751 40.9956 67.276 43.1493C66.8882 45.0976 65.9926 46.9089 64.68 48.4C64.768 45.2907 65.7067 42.7387 66.1467 37.576C66.4081 37.1978 66.7547 36.8863 67.1587 36.6667ZM63.624 11.7333H55.9387C55.0584 8.51122 53.3843 5.56126 51.0693 3.15334C56.3376 3.96462 60.9543 7.11975 63.624 11.7333ZM52.8 11.7333H35.2C39.2333 -0.161325 48.884 0.205341 52.8 11.7333ZM36.9453 3.15334C34.6053 5.54242 32.9272 8.49931 32.076 11.7333H24.376C27.0488 7.11611 31.6717 3.96046 36.9453 3.15334ZM23.0267 14.6667H64.9733C65.5032 16.0831 65.8482 17.562 66 19.0667H22C22.1518 17.562 22.4968 16.0831 23.0267 14.6667ZM19.0667 22H68.9333C71.6069 22.002 73.9409 23.8113 74.6093 26.4H13.3907C14.0591 23.8113 16.3931 22.002 19.0667 22ZM20.7387 43.1493C20.4357 40.9963 20.4703 38.8091 20.8413 36.6667C21.2614 36.8999 21.6226 37.2259 21.8973 37.62C22.3227 43.0467 23.2173 45.1293 23.364 48.444C22.0254 46.9495 21.118 45.1195 20.7387 43.1493ZM26.18 51.788C26.6053 42.6947 24.376 43.3253 24.7133 29.3333H63.3453C63.5947 41.888 61.732 43.5307 61.732 48.928C61.732 54.692 63.1987 58.7987 57.7573 63.9173C51.8467 69.5347 51.8027 74.8 46.9333 74.8H41.0667C36.212 74.8 36.212 69.6373 30.2573 63.9613C25.8133 59.708 25.9747 56.2173 26.18 51.788ZM6.17467 83.7027C10.5747 81.6347 14.784 78.7307 18.3333 77.484C19.3123 80.2648 20.8048 82.8369 22.7333 85.0667H3.74C4.50338 84.5309 5.31911 84.0739 6.17467 83.7027ZM26.9427 85.0667C23.9508 82.4934 21.7828 79.0961 20.7093 75.2987C22.8302 73.5036 25.4208 72.3534 28.1747 71.984C29.582 77.0437 32.4245 81.5876 36.3587 85.0667H26.9427ZM59.884 71.9693C62.6191 72.3488 65.1915 73.4927 67.3053 75.2693C66.2578 79.0902 64.0799 82.5053 61.0573 85.0667H51.5533C55.5484 81.607 58.4441 77.0543 59.884 71.9693Z" fill="#4B261D"/>
</g>
<defs>
<clipPath id="clip0">
<rect width="88" height="88" fill="white"/>
</clipPath>
</defs>
</svg>
