<svg width="88" height="88" viewBox="0 0 88 88" fill="none" xmlns="http://www.w3.org/2000/svg">
<g clip-path="url(#clip0)">
<path d="M74.7904 74.7737L74.7676 74.7965C74.0962 75.4679 74.0962 76.5555 74.7676 77.2269C75.1033 77.5626 75.543 77.7304 75.9828 77.7304C76.4225 77.7304 76.863 77.5626 77.198 77.2269L77.2208 77.2048C77.8922 76.5334 77.8922 75.4451 77.2208 74.7737C76.5501 74.103 75.4618 74.103 74.7904 74.7737Z" fill="#4B261D"/>
<path d="M77.1987 25.2106C72.3674 20.3793 66.429 17.0599 59.9562 15.4849V11.6976C63.0989 11.6022 65.628 9.0174 65.628 5.85114C65.628 2.62445 63.0029 0 59.7769 0H42.6035C39.3775 0 36.7524 2.62445 36.7524 5.85114C36.7524 9.0174 39.2808 11.6022 42.4243 11.6976V15.4889C38.5738 16.4295 34.8953 17.9925 31.5115 20.1403L22.1712 8.26141C21.4783 7.37988 20.4384 6.875 19.3178 6.875C19.3151 6.875 19.3118 6.875 19.3091 6.875C18.1845 6.87769 17.1439 7.38794 16.453 8.27484L4.3244 23.849C4.32037 23.8544 4.31634 23.8597 4.31232 23.8651C1.53076 27.2905 0 31.6049 0 36.0192C0 45.0245 6.20697 52.6105 14.5778 54.7442C16.3583 73.5175 32.1413 88 51.1905 88C58.4899 88 65.5441 85.8657 71.5906 81.8286C72.3802 81.3016 72.593 80.2341 72.0653 79.4445C71.5383 78.655 70.4714 78.4421 69.6819 78.9698C64.202 82.6282 57.8077 84.5625 51.1905 84.5625C34.2212 84.5625 20.1114 71.8867 18.0945 55.3008C18.5175 55.3283 18.9432 55.3438 19.3729 55.3438C20.5068 55.3438 21.618 55.2451 22.6989 55.0577C23.5321 61.2943 26.3875 67.0641 30.8509 71.5309C30.8556 71.5356 30.8589 71.541 30.8636 71.545C30.8697 71.551 30.8764 71.5557 30.8824 71.5618C31.1584 71.8377 31.4397 72.1096 31.7284 72.3748C37.0464 77.2692 43.9584 79.9648 51.1905 79.9648C59.0357 79.9648 66.1558 76.8046 71.3476 71.6913C71.406 71.6464 71.4631 71.5987 71.5168 71.545C71.5705 71.4913 71.6182 71.4342 71.6631 71.3758C76.7757 66.184 79.9366 59.0639 79.9366 51.2188C79.9366 43.3736 76.7757 36.2535 71.6631 31.0617C71.6182 31.0033 71.406 30.7911 71.3476 30.7462C66.1558 25.6329 59.0357 22.4727 51.1905 22.4727C45.8893 22.4727 40.7827 23.9034 36.3012 26.6252C35.7601 25.6537 35.1343 24.7258 34.4274 23.8557C34.4032 23.8201 34.3777 23.7852 34.3508 23.751L33.6486 22.8574C38.9109 19.5944 44.9446 17.875 51.1905 17.875C69.5758 17.875 84.5343 32.8328 84.5343 51.2188C84.5343 57.8225 82.6074 64.2054 78.9631 69.6772C78.4368 70.4674 78.6509 71.5342 79.4405 72.0606C79.7332 72.256 80.0642 72.3493 80.3918 72.3493C80.9477 72.3493 81.4929 72.0801 81.8239 71.5826C85.8455 65.5448 87.9711 58.5026 87.9711 51.2188C87.9718 41.3943 84.1456 32.1574 77.1987 25.2106ZM3.4375 36.0192C3.4375 32.3743 4.70709 28.8132 7.01263 25.9927C7.03412 25.9666 7.05359 25.9404 7.07306 25.9142L19.1654 10.387C19.1795 10.3682 19.2265 10.3078 19.3178 10.3125C19.4111 10.3125 19.4548 10.3676 19.4695 10.3864L31.5417 25.7396C31.5793 25.798 31.621 25.8551 31.666 25.9095C34.0151 28.7448 35.3082 32.3353 35.3082 36.0192C35.3082 44.7795 28.16 51.9062 19.3729 51.9062C10.5864 51.9062 3.4375 44.7795 3.4375 36.0192ZM57.133 49.5C56.5442 47.4684 54.9409 45.8644 52.9093 45.2763V25.9699C58.5959 26.3533 63.7743 28.6226 67.8208 32.1574L65.2554 34.7228C64.584 35.3942 64.584 36.4825 65.2554 37.1539C65.5911 37.4896 66.0309 37.6574 66.4706 37.6574C66.9104 37.6574 67.3502 37.4896 67.6858 37.1539L70.2512 34.5885C73.7867 38.6349 76.056 43.8127 76.4394 49.5H57.133ZM51.1905 48.4688C52.7065 48.4688 53.9405 49.7028 53.9405 51.2188C53.9405 52.7347 52.7065 53.9688 51.1905 53.9688C49.6739 53.9688 48.4405 52.7347 48.4405 51.2188C48.4405 49.7028 49.6739 48.4688 51.1905 48.4688ZM49.4718 25.9706V45.2763C46.8937 46.0229 45.003 48.4036 45.003 51.2188C45.003 54.6307 47.7786 57.4062 51.1905 57.4062C54.0057 57.4062 56.3864 55.5156 57.133 52.9375H76.4394C76.056 58.6248 73.7867 63.8026 70.2512 67.849L67.6858 65.2836C67.0145 64.6129 65.9261 64.6129 65.2548 65.2836C64.584 65.955 64.584 67.0433 65.2548 67.7147L67.8208 70.2801C63.7737 73.8149 58.5959 76.0849 52.9086 76.4676V72.8287C52.9086 71.8793 52.1392 71.1099 51.1899 71.1099C50.2405 71.1099 49.4711 71.8793 49.4711 72.8287V76.4669C43.8449 76.0789 38.6584 73.7995 34.5892 70.2499L37.125 67.7147C37.7964 67.0433 37.7964 65.955 37.125 65.2836C36.4536 64.6129 35.3653 64.6129 34.6946 65.2836L32.1554 67.8228C28.8676 64.0751 26.6561 59.358 26.0511 54.1601C33.4532 51.4403 38.7457 44.335 38.7457 36.0192C38.7457 33.8916 38.3879 31.7908 37.7091 29.8002C41.2601 27.5577 45.275 26.2512 49.4718 25.9706ZM40.1905 5.85114C40.1905 4.52045 41.2728 3.4375 42.6035 3.4375H59.7769C61.1076 3.4375 62.1905 4.52045 62.1905 5.85114C62.1905 7.18182 61.1076 8.2641 59.7769 8.2641H42.6042C41.2728 8.2641 40.1905 7.18182 40.1905 5.85114ZM45.8624 14.8215V11.7016H56.5187V14.8195C54.769 14.5671 52.9899 14.4375 51.1905 14.4375C49.3946 14.4375 47.6147 14.5677 45.8624 14.8215Z" fill="#4B261D"/>
<path d="M28.1016 34.3005C27.1523 34.3005 26.3829 35.0706 26.3829 36.0193C26.3829 39.8717 23.2381 43.0057 19.3729 43.0057C18.4236 43.0057 17.6542 43.7751 17.6542 44.7245C17.6542 45.6731 18.4236 46.4432 19.3729 46.4432C25.1334 46.4432 29.8204 41.767 29.8204 36.0193C29.8204 35.0706 29.051 34.3005 28.1016 34.3005Z" fill="#4B261D"/>
</g>
<defs>
<clipPath id="clip0">
<rect width="88" height="88" fill="white"/>
</clipPath>
</defs>
</svg>
