<svg width="88" height="88" viewBox="0 0 88 88" fill="none" xmlns="http://www.w3.org/2000/svg">
<path d="M88 30.7788V27.037C88 25.9758 87.432 24.9801 86.5181 24.4389L76.1301 18.2793C75.5177 17.9163 74.7271 18.1179 74.3638 18.7294C74.0004 19.341 74.2022 20.1313 74.8143 20.4941L85.2027 26.6541C85.338 26.7343 85.4219 26.8807 85.4219 27.0368V30.7786C85.4219 31.0249 85.2215 31.2251 84.975 31.2251H20.6173C19.9054 31.2251 19.3282 31.8015 19.3282 32.513C19.3282 33.2244 19.9054 33.8009 20.6173 33.8009H78.456C78.0283 34.5468 77.7824 35.4095 77.7824 36.3291C77.7824 37.2487 78.0283 38.1114 78.456 38.8575H9.54387C9.97167 38.1116 10.2175 37.2488 10.2175 36.3291C10.2175 35.4095 9.9715 34.5468 9.54387 33.8009H14.6016C15.3135 33.8009 15.8907 33.2244 15.8907 32.513C15.8907 31.8015 15.3135 31.2251 14.6016 31.2251H3.025C2.77853 31.2251 2.57812 31.0249 2.57812 30.7786V27.0368C2.57812 26.8807 2.66217 26.7341 2.79778 26.6537L42.8854 2.88307C43.5729 2.47609 44.4271 2.47575 45.1141 2.88273L69.6424 17.4274C70.2548 17.7904 71.0456 17.5888 71.4087 16.9773C71.7721 16.3656 71.5703 15.5754 70.9583 15.2126L46.4295 0.66754C44.9307 -0.220251 43.0691 -0.220251 41.57 0.667884L1.48242 24.4387C0.568047 24.9803 0 25.9759 0 27.037V30.7788C0 31.7291 0.442234 32.5772 1.13094 33.1315C0.424359 34.0073 0 35.1195 0 36.3293C0 37.8461 0.666531 39.2099 1.72133 40.1456C0.666531 41.0811 0 42.4449 0 43.9617C0 45.4785 0.666531 46.8423 1.72133 47.778C0.666531 48.7137 0 50.0773 0 51.5941C0 53.1109 0.666531 54.4747 1.72133 55.4104C0.666531 56.3461 0 57.7098 0 59.2267C0 60.7437 0.666531 62.1073 1.72133 63.043C0.666531 63.9786 0 65.3422 0 66.8592C0 68.3761 0.666531 69.7398 1.72133 70.6755C0.666531 71.611 0 72.9748 0 74.4916C0 75.4613 0.27225 76.3685 0.744047 77.1414C0.304906 77.3468 0 77.7908 0 78.3074V86.6341C0 87.3455 0.577156 87.922 1.28906 87.922H65.6561C66.3682 87.922 66.9451 87.3455 66.9451 86.6341C66.9451 85.9226 66.3682 85.3462 65.6561 85.3462H2.57812V79.5953H85.4219V85.3462H71.6717C70.9596 85.3462 70.3826 85.9226 70.3826 86.6341C70.3826 87.3455 70.9596 87.922 71.6717 87.922H86.7109C87.423 87.922 88 87.3455 88 86.6341V78.3074C88 77.7908 87.6951 77.3468 87.256 77.1414C87.7277 76.3685 88 75.4611 88 74.4916C88 72.9748 87.3335 71.611 86.2787 70.6753C87.3335 69.7396 88 68.376 88 66.859C88 65.342 87.3335 63.9784 86.2787 63.0427C87.3335 62.107 88 60.7434 88 59.2264C88 57.7094 87.3335 56.3458 86.2787 55.4101C87.3335 54.4744 88 53.1108 88 51.5938C88 50.0768 87.3335 48.7132 86.2787 47.7775C87.3335 46.8423 88 45.4785 88 43.9617C88 42.4449 87.3335 41.0811 86.2787 40.1454C87.3335 39.2097 88 37.8461 88 36.3291C88 35.1193 87.5756 34.0073 86.8692 33.1315C87.5578 32.5772 88 31.7291 88 30.7788ZM74.8048 41.4333H78.4563C78.0285 42.1793 77.7827 43.042 77.7827 43.9617C77.7827 44.8811 78.0285 45.7435 78.456 46.4894H74.805V41.4333H74.8048ZM74.8048 49.0652H78.4566C78.0287 49.8113 77.7825 50.6744 77.7825 51.5943C77.7825 52.5139 78.0285 53.3766 78.4561 54.1225H74.8048V49.0652ZM74.8048 56.6982H78.4563C78.0285 57.4441 77.7825 58.307 77.7825 59.2267C77.7825 60.1465 78.0285 61.0094 78.4563 61.7555H74.8046V56.6982H74.8048ZM45.2891 41.4333H72.2267V61.755H45.2891V41.4333ZM38.6915 41.4333H42.7109V46.4893H38.6915V41.4333ZM38.6915 49.0652H42.7109V54.1224H38.6915V49.0652ZM38.6915 56.6982H42.7109V61.7553H38.6915V56.6982ZM5.10211 77.0195C3.70975 77.0159 2.57812 75.8834 2.57812 74.4916C2.57812 73.1005 3.70872 71.9683 5.10022 71.9637C5.10297 71.9637 5.10555 71.9641 5.1083 71.9641H5.12548C6.5132 71.9732 7.6395 73.1031 7.6395 74.4916C7.63984 75.888 6.49894 77.0236 5.10211 77.0195ZM5.10881 69.3874C3.71336 69.3874 2.57812 68.2532 2.57812 66.859C2.57812 65.4662 3.71147 64.3328 5.1052 64.3308C5.10623 64.3308 5.10727 64.3309 5.1083 64.3309H5.11552C6.50787 64.3345 7.6395 65.467 7.6395 66.859C7.63933 68.2532 6.50409 69.3874 5.10881 69.3874ZM5.10881 61.755C3.71336 61.755 2.57812 60.6208 2.57812 59.2266C2.57812 57.8324 3.71336 56.6982 5.10881 56.6982C6.50427 56.6982 7.6395 57.8324 7.6395 59.2266C7.6395 60.6208 6.50409 61.755 5.10881 61.755ZM5.11208 54.1224H5.10812C5.10761 54.1224 5.10727 54.1224 5.10675 54.1224C3.71233 54.1213 2.57812 52.9876 2.57812 51.5941C2.57812 50.2001 3.71336 49.0657 5.10881 49.0657C6.50427 49.0657 7.6395 50.1999 7.6395 51.5941C7.63933 52.9871 6.50598 54.1205 5.11208 54.1224ZM5.12205 46.4894H5.10812C5.10606 46.4894 5.104 46.4898 5.10177 46.4898C3.70958 46.4858 2.57812 45.3533 2.57812 43.9617C2.57812 42.5677 3.71336 41.4333 5.10881 41.4333C6.50427 41.4333 7.63933 42.5677 7.63933 43.9617C7.63933 45.3513 6.51131 46.482 5.12205 46.4894ZM5.10881 38.8575C3.71336 38.8575 2.57812 37.7233 2.57812 36.3291C2.57812 34.9361 3.71164 33.8028 5.10538 33.8009H5.11208C6.50598 33.8028 7.63933 34.9361 7.63933 36.3291C7.63933 37.7233 6.50409 38.8575 5.10881 38.8575ZM13.1952 77.0195H9.54405C9.97167 76.2735 10.2175 75.411 10.2175 74.4916C10.2175 73.5724 9.97167 72.7098 9.54422 71.9641H13.1952V77.0195ZM13.1952 69.3883H9.54336C9.97133 68.6421 10.2175 67.7791 10.2175 66.859C10.2175 65.9396 9.97167 65.0769 9.54405 64.3309H13.1952V69.3883ZM13.1952 61.7553H9.5437C9.9715 61.0092 10.2175 60.1463 10.2175 59.2266C10.2175 58.3068 9.9715 57.4441 9.5437 56.698H13.1952V61.7553ZM13.1952 54.1224H9.54405C9.97167 53.3764 10.2176 52.5137 10.2176 51.5941C10.2176 50.6742 9.9715 49.8113 9.54353 49.065H13.1954V54.1224H13.1952ZM13.1952 46.4894H9.54422C9.97167 45.7436 10.2175 44.8811 10.2175 43.9617C10.2175 43.0421 9.9715 42.1794 9.54387 41.4333H13.1954V46.4894H13.1952ZM36.1133 77.0195H15.7733V41.4333H36.1132V77.0195H36.1133ZM38.6915 77.0195V71.9641H78.4556C78.0282 72.7098 77.7824 73.5724 77.7824 74.4916C77.7824 75.411 78.0282 76.2735 78.4558 77.0195H38.6915ZM38.6915 69.3883V64.3311H78.456C78.0283 65.0771 77.7825 65.9396 77.7825 66.8592C77.7825 67.7791 78.0287 68.6421 78.4566 69.3884H38.6915V69.3883ZM82.8979 77.0195C81.5011 77.0236 80.3602 75.888 80.3607 74.4916C80.3607 73.1031 81.4871 71.9732 82.8747 71.9641H82.8919C82.8946 71.9641 82.8972 71.9637 82.8998 71.9637C84.2911 71.9683 85.4217 73.1005 85.4217 74.4916C85.4219 75.8834 84.2901 77.0159 82.8979 77.0195ZM82.8912 69.3874C81.4959 69.3874 80.3605 68.2532 80.3605 66.859C80.3605 65.4672 81.4923 64.3345 82.8845 64.3309H82.8917C82.8927 64.3309 82.8936 64.3308 82.8946 64.3308C84.2882 64.3328 85.4215 65.4662 85.4215 66.859C85.4219 68.2532 84.2866 69.3874 82.8912 69.3874ZM82.8912 61.755C81.4959 61.755 80.3605 60.6208 80.3605 59.2266C80.3605 57.8324 81.4957 56.6982 82.8912 56.6982C84.2866 56.6982 85.4219 57.8325 85.4219 59.2267C85.4219 60.6209 84.2866 61.755 82.8912 61.755ZM82.8932 54.1224C82.8927 54.1224 82.8924 54.1224 82.8919 54.1224H82.8879C81.4942 54.1205 80.3607 52.9871 80.3607 51.5941C80.3607 50.2001 81.4959 49.0657 82.8914 49.0657C84.2868 49.0657 85.4219 50.2001 85.4219 51.5941C85.4219 52.9876 84.2877 54.1213 82.8932 54.1224ZM82.8982 46.4898C82.8962 46.4898 82.8941 46.4894 82.8919 46.4894H82.878C81.4889 46.4822 80.3607 45.3513 80.3607 43.9617C80.3607 42.5677 81.4959 41.4333 82.8914 41.4333C84.2868 41.4333 85.4219 42.5677 85.4219 43.9617C85.4219 45.3533 84.2902 46.4858 82.8982 46.4898ZM82.8912 38.8575C81.4959 38.8575 80.3605 37.7233 80.3605 36.3291C80.3605 34.9361 81.494 33.8028 82.8877 33.8009H82.8945C84.2882 33.8028 85.4217 34.9361 85.4217 36.3291C85.4219 37.7233 84.2866 38.8575 82.8912 38.8575Z" fill="#4B261D"/>
<path d="M28.374 60.5132H31.8464C32.5583 60.5132 33.1355 59.9367 33.1355 59.2253C33.1355 58.5139 32.5583 57.9374 31.8464 57.9374H28.374C27.6621 57.9374 27.085 58.5139 27.085 59.2253C27.085 59.9367 27.6621 60.5132 28.374 60.5132Z" fill="#4B261D"/>
<path d="M35.766 18.9812C35.766 23.5174 39.4598 27.2078 44 27.2078C48.5403 27.2078 52.2339 23.5174 52.2339 18.9812C52.2339 14.4451 48.5403 10.7548 44 10.7548C39.4598 10.7548 35.766 14.4451 35.766 18.9812ZM49.6557 18.9812C49.6557 22.0972 47.1185 24.632 44 24.632C40.8813 24.632 38.3441 22.0971 38.3441 18.9812C38.3441 15.8653 40.8813 13.3306 44 13.3306C47.1187 13.3306 49.6557 15.8655 49.6557 18.9812Z" fill="#4B261D"/>
<path d="M79.866 16.3558C79.866 17.0672 80.4431 17.6422 81.155 17.6422C81.8556 17.6422 82.4259 17.0822 82.4437 16.3865C82.5252 16.2971 82.7552 16.1439 82.9119 16.0395C83.5162 15.637 84.5275 14.9633 84.5275 13.5803C84.5275 12.1973 83.5161 11.5234 82.9118 11.1211C82.772 11.0279 82.5739 10.896 82.475 10.8051C82.574 10.7143 82.772 10.5824 82.9118 10.4893C83.5162 10.0868 84.5275 9.41335 84.5275 8.03049C84.5275 7.31906 83.9504 6.74414 83.2385 6.74414C82.5379 6.74414 81.9678 7.30378 81.9498 7.99941C81.8681 8.08888 81.6385 8.24171 81.4819 8.34611C80.8774 8.74863 79.866 9.42211 79.866 10.8051C79.866 12.1882 80.8774 12.862 81.4818 13.2643C81.6215 13.3576 81.8198 13.4896 81.9187 13.5805C81.8198 13.6713 81.6215 13.8034 81.4818 13.8966C80.8774 14.299 79.866 14.9726 79.866 16.3558Z" fill="#4B261D"/>
<path d="M69.1014 9.61292C69.1014 10.3244 69.6786 10.8993 70.3905 10.8993C71.0911 10.8993 71.6613 10.3393 71.6792 9.64366C71.7607 9.55419 71.9907 9.40102 72.1474 9.29661C72.7517 8.8941 73.763 8.22044 73.763 6.83741C73.763 5.45438 72.7515 4.78055 72.1472 4.37821C72.0075 4.28497 71.8093 4.15309 71.7105 4.06225C71.8095 3.97141 72.0075 3.83953 72.1472 3.74646C72.7517 3.34395 73.763 2.67046 73.763 1.2876C73.763 0.576169 73.1859 0.00125122 72.474 0.00125122C71.7734 0.00125122 71.2033 0.560886 71.1853 1.25652C71.1036 1.34599 70.874 1.49882 70.7174 1.60322C70.1129 2.00574 69.1014 2.67922 69.1014 4.06225C69.1014 5.44528 70.1129 6.11911 70.7172 6.52145C70.857 6.61469 71.0553 6.74675 71.1541 6.83758C71.0553 6.92842 70.857 7.06048 70.7172 7.15372C70.1129 7.55606 69.1014 8.22989 69.1014 9.61292Z" fill="#4B261D"/>
<path d="M3.47241 13.5803C3.47241 14.9635 4.4839 15.6371 5.08804 16.0395C5.24496 16.1439 5.47476 16.2971 5.55622 16.3865C5.57255 17.0835 6.14335 17.6435 6.84494 17.6435C7.55685 17.6435 8.13401 17.0671 8.13401 16.3556C8.13401 14.9724 7.12252 14.2986 6.51821 13.8962C6.3783 13.803 6.18013 13.671 6.0813 13.5801C6.1803 13.4893 6.37847 13.3572 6.51821 13.264C7.12252 12.8615 8.13401 12.1878 8.13401 10.8048C8.13401 9.42175 7.12235 8.74809 6.51804 8.34575C6.36129 8.24152 6.13166 8.08851 6.05019 7.99905C6.03352 7.30204 5.4629 6.7424 4.76147 6.7424C4.04957 6.7424 3.47241 7.31886 3.47241 8.0303C3.47241 9.41333 4.4839 10.0868 5.08821 10.4892C5.22794 10.5822 5.42594 10.7141 5.52494 10.8049C5.42594 10.8958 5.22794 11.0277 5.08804 11.1209C4.4839 11.5234 3.47241 12.1971 3.47241 13.5803Z" fill="#4B261D"/>
<path d="M14.2369 6.83771C14.2369 8.22074 15.2483 8.89457 15.8526 9.29691C16.0095 9.40131 16.2393 9.55449 16.3208 9.64395C16.3371 10.341 16.9079 10.9009 17.6095 10.9009C18.3214 10.9009 18.8985 10.3245 18.8985 9.61304C18.8985 8.22984 17.8871 7.55601 17.2827 7.15367C17.1428 7.06043 16.9447 6.92838 16.8458 6.83754C16.9447 6.7467 17.1428 6.61465 17.2827 6.5214C17.8871 6.11889 18.8984 5.44523 18.8984 4.0622C18.8984 2.67917 17.8869 2.00552 17.2824 1.60318C17.1258 1.49894 16.896 1.34594 16.8146 1.25647C16.7982 0.559806 16.2276 0 15.526 0C14.8141 0 14.2369 0.576463 14.2369 1.2879C14.2369 2.67093 15.2484 3.34441 15.8527 3.74675C15.9925 3.83983 16.1905 3.97171 16.2895 4.06255C16.1906 4.15339 15.9925 4.28527 15.8526 4.37851C15.2484 4.78102 14.2369 5.45468 14.2369 6.83771Z" fill="#4B261D"/>
</svg>
