<svg width="88" height="88" viewBox="0 0 88 88" fill="none" xmlns="http://www.w3.org/2000/svg">
<g clip-path="url(#clip0)">
<path d="M74.4479 27.6046L70.3162 22.592C69.7488 21.9039 69.4037 21.0714 69.3192 20.1845L68.6961 13.7184C68.3725 10.3588 65.6991 7.68531 62.3394 7.36171L55.8734 6.73933C54.9865 6.65407 54.1539 6.30898 53.4658 5.74233L48.4532 1.60996C45.8489 -0.536451 42.0684 -0.536451 39.4641 1.60996L34.4515 5.74233C33.764 6.30898 32.9315 6.65407 32.0439 6.73933L25.5778 7.36171C22.2182 7.68531 19.5455 10.3588 19.2212 13.7184L18.5988 20.1845C18.5135 21.0714 18.1684 21.9039 17.6018 22.592L13.4694 27.6046C11.323 30.2089 11.323 33.9895 13.4694 36.5938L17.6018 41.6063C18.1684 42.2945 18.5135 43.127 18.5988 44.0139L19.2212 50.48C19.5448 53.8396 22.2182 56.5124 25.5778 56.8366L29.5303 57.2173L20.1396 79.657C19.8852 80.2679 20 80.9554 20.4397 81.4509C20.8795 81.9457 21.5475 82.1418 22.1826 81.9612L30.3299 79.661C30.3655 79.6509 30.3997 79.6664 30.4158 79.6952L34.4958 87.114C34.7993 87.6666 35.3666 87.9996 35.991 87.9996C36.0205 87.9996 36.0501 87.9989 36.0803 87.9976C36.7403 87.964 37.3109 87.5652 37.5721 86.9502L47.4864 63.2571C47.8228 63.0637 48.1464 62.8415 48.4539 62.5884L53.4664 58.4567C54.1009 57.933 54.8602 57.602 55.6706 57.4865L64.6504 78.9433L58.2957 77.1494C57.0872 76.809 55.8217 77.3387 55.2154 78.4377L52.0337 84.223L47.8181 74.1489C47.5395 73.4836 46.7754 73.1707 46.1101 73.4487C45.4454 73.7266 45.1319 74.4913 45.4105 75.156L50.3485 86.9569C50.607 87.5652 51.177 87.964 51.8377 87.9976C51.8679 87.9989 51.8974 88.0003 51.927 88.0003C52.5513 88.0003 53.1187 87.6666 53.4221 87.114L57.5015 79.6966C57.5182 79.6664 57.5532 79.6523 57.5874 79.661L65.7333 81.9612C66.3698 82.1411 67.0385 81.9457 67.4775 81.4509C67.9173 80.9554 68.0321 80.2686 67.777 79.6556L58.387 57.2166L62.3394 56.836C65.6991 56.5124 68.3725 53.8396 68.6961 50.48L69.3192 44.0132C69.4037 43.1263 69.7488 42.2945 70.3162 41.6063L74.4479 36.5938C76.5949 33.9895 76.5949 30.2089 74.4479 27.6046ZM35.8842 84.223L32.7019 78.4364C32.0963 77.338 30.8294 76.8083 29.6216 77.1494L23.2676 78.9426L32.2467 57.4865C33.0577 57.602 33.8171 57.933 34.4515 58.456L39.4641 62.5884C40.7665 63.6619 42.3624 64.1984 43.959 64.1984C44.0617 64.1984 44.1637 64.1957 44.2665 64.191L35.8842 84.223ZM72.4344 34.9341L68.3027 39.9466C67.403 41.037 66.8565 42.3569 66.7209 43.7635L66.0985 50.2295C65.8944 52.3484 64.2086 54.0343 62.0897 54.2384L56.4098 54.7856C56.3876 54.7869 56.3648 54.7889 56.3426 54.7923L55.6236 54.8614C54.2164 54.997 52.8964 55.5436 51.8061 56.4425L46.7936 60.5742C45.1514 61.9284 42.7666 61.9284 41.1244 60.5742L36.1118 56.4425C35.0215 55.5436 33.7016 54.9964 32.2944 54.8614L31.5719 54.7916C31.5518 54.7889 31.5323 54.7876 31.5122 54.7862L25.8283 54.2384C23.7094 54.0343 22.0235 52.3484 21.8194 50.2295L21.1971 43.7641C21.0614 42.3569 20.5149 41.037 19.6153 39.9466L15.4836 34.9341C14.1294 33.2912 14.1294 30.9065 15.4836 29.2643L19.6153 24.2517C20.5149 23.1614 21.0614 21.8414 21.1971 20.4342L21.8194 13.9681C22.0235 11.8492 23.7094 10.1634 25.8283 9.95929L32.2944 9.33692C33.7016 9.2013 35.0215 8.65479 36.1118 7.75581L41.1244 3.62411C41.9455 2.94736 42.9526 2.60831 43.959 2.60831C44.9654 2.60831 45.9725 2.94669 46.7936 3.62411L51.8061 7.75581C52.8964 8.65479 54.2164 9.20197 55.6236 9.33692L62.0897 9.95929C64.2086 10.1634 65.8944 11.8492 66.0985 13.9681L66.7209 20.4342C66.8565 21.8414 67.403 23.1614 68.3027 24.2517L72.4344 29.2643C73.7879 30.9071 73.7879 33.2912 72.4344 34.9341Z" fill="#4B261D"/>
<path d="M43.9591 11.7143C43.0876 11.7143 42.2108 11.7694 41.3514 11.8795C40.6371 11.9708 40.1315 12.6247 40.2228 13.3391C40.3141 14.0541 40.9687 14.559 41.6824 14.4683C42.4317 14.3723 43.1977 14.324 43.9591 14.324C53.7606 14.324 61.7346 22.298 61.7346 32.0995C61.7346 41.9011 53.7599 49.8744 43.9591 49.8744C34.1575 49.8744 26.1835 41.9004 26.1835 32.0989C26.1835 25.1078 30.3058 18.7397 36.6853 15.8749C37.3426 15.5802 37.6367 14.8074 37.3412 14.1501C37.0458 13.4921 36.2731 13.1988 35.6165 13.4942C28.3004 16.7792 23.5739 24.0819 23.5739 32.0989C23.5739 43.3398 32.7188 52.4841 43.9591 52.4841C55.1994 52.4841 64.3443 43.3398 64.3443 32.0989C64.3443 20.8586 55.1994 11.7143 43.9591 11.7143Z" fill="#4B261D"/>
<path d="M30.9993 30.5876C29.4437 32.1432 29.4437 34.675 30.9993 36.2306L36.6987 41.9307C37.4527 42.684 38.4544 43.0989 39.5206 43.0989C40.5861 43.0989 41.5885 42.684 42.3424 41.9307L54.7839 29.4886C56.3395 27.9323 56.3395 25.4012 54.7839 23.8449C53.2283 22.2893 50.6965 22.2893 49.1402 23.8449L39.5206 33.4652L36.6424 30.5876C35.0867 29.032 32.5549 29.032 30.9993 30.5876ZM39.5206 36.616C39.8664 36.616 40.198 36.4784 40.4431 36.2333L50.9859 25.6905C51.5243 25.1521 52.3998 25.1528 52.9383 25.6905C53.4767 26.229 53.4767 27.1052 52.9383 27.6429L40.4968 40.0851C40.2363 40.3456 39.8892 40.4893 39.5206 40.4893C39.1513 40.4893 38.8049 40.3456 38.5444 40.0851L32.8443 34.3857C32.3065 33.8472 32.3065 32.9711 32.8443 32.4333C33.1135 32.1641 33.4674 32.0291 33.8212 32.0291C34.1743 32.0291 34.5282 32.1641 34.7967 32.4326L38.5974 36.2333C38.8425 36.4784 39.1742 36.616 39.5206 36.616Z" fill="#4B261D"/>
</g>
<defs>
<clipPath id="clip0">
<rect width="88" height="88" fill="white"/>
</clipPath>
</defs>
</svg>
