<svg width="40" height="40" viewBox="0 0 40 40" fill="none" xmlns="http://www.w3.org/2000/svg">
<g clip-path="url(#clip0)">
<path d="M34.143 6.15136C30.3655 2.4166 25.3431 0.359863 20.001 0.359863C14.69 0.359863 9.61417 2.43853 5.85878 6.15136C2.08129 9.88605 0.000976562 14.8516 0.000976562 20.1332C0.000976562 24.2505 1.26871 28.1969 3.66707 31.5459C6.01238 34.8207 9.25503 37.2864 13.0444 38.6765C13.2989 38.7699 13.5932 38.6937 13.7684 38.4677C13.8552 38.3556 13.8957 38.2148 13.8957 38.0736V26.7937C13.8957 26.4488 13.6129 26.1693 13.2642 26.1693H8.00105V21.5902H13.2642C13.613 21.5902 13.8957 21.3106 13.8957 20.9658V20.1332C13.8957 14.7002 19.1097 9.93433 25.0536 9.93433H27.7905V14.5134H25.0536C23.2713 14.5134 21.6506 15.0206 20.4901 15.9415C19.206 16.9604 18.5273 18.4099 18.5273 20.1332V20.9658C18.5273 21.3106 18.8101 21.5902 19.1588 21.5902H21.6488C21.9977 21.5902 22.2804 21.3106 22.2804 20.9658C22.2804 20.6209 21.9976 20.3414 21.6488 20.3414H19.7904V20.1332C19.7904 16.9071 22.6256 15.7623 25.0535 15.7623H28.422C28.7708 15.7623 29.0535 15.4827 29.0535 15.1379V9.30992C29.0535 8.96505 28.7707 8.68552 28.422 8.68552H25.0535C21.9662 8.68552 18.8369 9.89972 16.468 12.0168C13.9946 14.2273 12.6324 17.1097 12.6324 20.1333V20.3414H7.36933C7.0205 20.3414 6.73777 20.621 6.73777 20.9658V26.7938C6.73777 27.1387 7.02058 27.4182 7.36933 27.4182H12.6324V37.1695C5.79636 34.2739 1.2641 27.5395 1.2641 20.1332C1.2641 9.91872 9.6694 1.60867 20.0008 1.60867C30.3209 1.60867 38.7377 9.93 38.7377 20.1333C38.7377 30.3477 30.3324 38.6576 20.0009 38.6576C19.9317 38.6576 19.8617 38.6573 19.7903 38.6563V27.4181H28.422C28.7708 27.4181 29.0535 27.1385 29.0535 26.7937V20.9658C29.0535 20.6209 28.7707 20.3414 28.422 20.3414H24.7253C24.3765 20.3414 24.0938 20.621 24.0938 20.9658C24.0938 21.3106 24.3766 21.5902 24.7253 21.5902H27.7904V26.1692H19.1588C18.81 26.1692 18.5273 26.4488 18.5273 26.7936V39.263C18.5273 39.597 18.7935 39.8725 19.1311 39.8868C19.444 39.9 19.7286 39.9065 20.001 39.9065C25.3431 39.9065 30.3656 37.8498 34.1431 34.115C37.8985 30.4021 40.001 25.3839 40.001 20.133C40.0009 14.8516 37.9205 9.88605 34.143 6.15136Z" fill="#FEFFE2"/>
</g>
<defs>
<clipPath id="clip0">
<rect width="40" height="39.5467" fill="white" transform="translate(0 0.359863)"/>
</clipPath>
</defs>
</svg>
