<svg width="40" height="40" viewBox="0 0 40 40" fill="none" xmlns="http://www.w3.org/2000/svg">
<g clip-path="url(#clip0)">
<path d="M34.1421 6.15138C30.3646 2.4166 25.3421 0.359863 20 0.359863C14.6579 0.359863 9.63539 2.4166 5.85789 6.15138C2.08031 9.88607 0 14.8517 0 20.1332C0 25.4148 2.08031 30.3804 5.85789 34.1151C9.63539 37.8499 14.6579 39.9066 20 39.9066C25.3421 39.9066 30.3646 37.8499 34.1421 34.1151C37.9196 30.3803 40 25.4148 40 20.1332C40 14.8517 37.9197 9.88607 34.1421 6.15138ZM20 38.6578C9.66844 38.6578 1.26312 30.3477 1.26312 20.1332C1.26312 9.91874 9.66844 1.60868 20 1.60868C30.3316 1.60868 38.7369 9.91874 38.7369 20.1332C38.7369 30.3477 30.3316 38.6578 20 38.6578Z" fill="#FEFFE2"/>
<path d="M27.1755 7.85303H12.8247C9.93223 7.85303 7.5791 10.1796 7.5791 13.0392V27.2275C7.5791 30.0871 9.9323 32.4136 12.8247 32.4136H27.1757C30.068 32.4136 32.4212 30.0871 32.4212 27.2275V13.0392C32.4211 10.1795 30.068 7.85303 27.1755 7.85303ZM31.158 27.2274C31.158 29.3984 29.3714 31.1648 27.1755 31.1648H12.8247C10.6288 31.1648 8.84223 29.3984 8.84223 27.2274V13.0392C8.84223 10.8682 10.6288 9.10184 12.8247 9.10184H27.1757C29.3715 9.10184 31.1581 10.8682 31.1581 13.0392V27.2274H31.158Z" fill="#FEFFE2"/>
<path d="M26.5157 19.7642C26.3289 16.479 23.625 13.8361 20.3003 13.6879C16.4637 13.5168 13.3054 16.6409 13.4806 20.4344C13.6325 23.7218 16.3079 26.3938 19.6312 26.5758C21.0336 26.6526 22.347 26.2879 23.444 25.6107C23.7857 25.3998 23.8414 24.93 23.5565 24.6484C23.5535 24.6454 23.5505 24.6425 23.5475 24.6395C23.34 24.4342 23.018 24.4033 22.7686 24.5565C21.9489 25.06 20.9801 25.3475 19.9437 25.3368C17.0175 25.3063 14.6565 22.8772 14.7389 19.9851C14.8218 17.0747 17.3339 14.7544 20.3372 14.9405C22.9251 15.1008 25.0317 17.141 25.2449 19.696C25.3317 20.7368 25.1053 21.7202 24.6504 22.566C24.5201 22.8083 24.5603 23.1053 24.7564 23.2993C24.7597 23.3024 24.7629 23.3057 24.7661 23.3088C25.0609 23.6003 25.5594 23.5318 25.7564 23.1686C26.3018 22.1625 26.586 20.9983 26.5157 19.7642Z" fill="#FEFFE2"/>
<path d="M26.7367 14.3054C27.6669 14.3054 28.4209 13.5599 28.4209 12.6402C28.4209 11.7206 27.6669 10.9751 26.7367 10.9751C25.8065 10.9751 25.0525 11.7206 25.0525 12.6402C25.0525 13.5599 25.8065 14.3054 26.7367 14.3054Z" fill="#FEFFE2"/>
</g>
<defs>
<clipPath id="clip0">
<rect width="40" height="39.5467" fill="white" transform="translate(0 0.359863)"/>
</clipPath>
</defs>
</svg>
