<svg width="96" height="18" viewBox="0 0 96 18" fill="none" xmlns="http://www.w3.org/2000/svg">
<path d="M2.376 17.384C1.8 17.384 1.288 17.24 0.84 16.952C0.392 16.648 0.168 16.248 0.168 15.752C0.168 15.4 0.272 15.112 0.48 14.888C0.704 14.648 0.992 14.52 1.344 14.504C1.744 14.472 2.04 14.584 2.232 14.84C2.424 15.08 2.52 15.32 2.52 15.56C2.52 15.832 2.44 16.048 2.28 16.208C2.408 16.336 2.544 16.4 2.688 16.4C2.96 16.4 3.272 16.168 3.624 15.704C3.992 15.24 4.344 14.528 4.68 13.568C5.016 12.608 5.296 11.4 5.52 9.944C5.744 8.472 5.856 6.736 5.856 4.736V1.16H5.352L3.6 1.256V0.199999H15.48V0.991999C14.888 1.008 14.472 1.144 14.232 1.4C14.008 1.656 13.88 2 13.848 2.432C13.832 2.864 13.824 3.368 13.824 3.944V14.144C13.824 14.992 13.8 15.624 13.752 16.04C14.04 16.024 14.328 16.008 14.616 15.992C14.904 15.976 15.192 15.96 15.48 15.944V17H10.056V16.208C10.664 16.176 11.08 16.04 11.304 15.8C11.544 15.544 11.672 15.2 11.688 14.768C11.72 14.32 11.736 13.816 11.736 13.256V1.136L8.352 1.16C7.776 1.16 7.416 1.32 7.272 1.64C7.128 1.944 7.04 2.408 7.008 3.032C7.008 4.44 6.96 5.832 6.864 7.208C6.768 8.584 6.616 9.888 6.408 11.12C6.2 12.336 5.92 13.416 5.568 14.36C5.216 15.304 4.776 16.048 4.248 16.592C3.72 17.12 3.096 17.384 2.376 17.384ZM23.2736 17.384C22.1536 17.384 21.1376 17.128 20.2256 16.616C19.3136 16.088 18.5856 15.368 18.0416 14.456C17.5136 13.528 17.2496 12.472 17.2496 11.288C17.2496 10.024 17.5136 8.888 18.0416 7.88C18.5696 6.872 19.2896 6.08 20.2016 5.504C21.1136 4.912 22.1376 4.616 23.2736 4.616C24.3936 4.616 25.4096 4.888 26.3216 5.432C27.2336 5.96 27.9616 6.68 28.5056 7.592C29.0496 8.504 29.3216 9.544 29.3216 10.712C29.3216 11.944 29.0496 13.072 28.5056 14.096C27.9776 15.104 27.2576 15.904 26.3456 16.496C25.4336 17.088 24.4096 17.384 23.2736 17.384ZM23.4656 16.424C24.3136 16.424 24.9856 16.184 25.4816 15.704C25.9776 15.224 26.3296 14.6 26.5376 13.832C26.7616 13.064 26.8736 12.256 26.8736 11.408C26.8736 10.688 26.8016 9.984 26.6576 9.296C26.5296 8.592 26.3216 7.96 26.0336 7.4C25.7456 6.824 25.3696 6.368 24.9056 6.032C24.4576 5.696 23.9136 5.528 23.2736 5.528C22.4416 5.528 21.7616 5.768 21.2336 6.248C20.7056 6.728 20.3136 7.352 20.0576 8.12C19.8176 8.888 19.6976 9.712 19.6976 10.592C19.6976 11.584 19.8336 12.528 20.1056 13.424C20.3776 14.304 20.7936 15.024 21.3536 15.584C21.9136 16.144 22.6176 16.424 23.4656 16.424ZM31.3607 17V16.28C31.8567 16.28 32.2007 16.16 32.3927 15.92C32.5847 15.664 32.6967 15.32 32.7287 14.888C32.7767 14.44 32.8007 13.928 32.8007 13.352V7.544C32.8007 7.224 32.8007 6.944 32.8007 6.704C32.8167 6.448 32.8487 6.184 32.8967 5.912C32.6407 5.928 32.3847 5.944 32.1287 5.96C31.8887 5.96 31.6407 5.968 31.3847 5.984V5H40.4087L40.5047 8.624H39.5927C39.5767 7.952 39.4727 7.424 39.2807 7.04C39.1047 6.64 38.7847 6.36 38.3207 6.2C37.8567 6.04 37.1927 5.96 36.3287 5.96H34.8647L34.8407 14.456C34.8407 14.776 34.8327 15.064 34.8167 15.32C34.8167 15.56 34.7927 15.816 34.7447 16.088L36.2567 16.016V17H31.3607ZM47.8361 17.384C46.7161 17.384 45.7001 17.128 44.7881 16.616C43.8761 16.088 43.1481 15.368 42.6041 14.456C42.0761 13.528 41.8121 12.472 41.8121 11.288C41.8121 10.024 42.0761 8.888 42.6041 7.88C43.1321 6.872 43.8521 6.08 44.7641 5.504C45.6761 4.912 46.7001 4.616 47.8361 4.616C48.9561 4.616 49.9721 4.888 50.8841 5.432C51.7961 5.96 52.5241 6.68 53.0681 7.592C53.6121 8.504 53.8841 9.544 53.8841 10.712C53.8841 11.944 53.6121 13.072 53.0681 14.096C52.5401 15.104 51.8201 15.904 50.9081 16.496C49.9961 17.088 48.9721 17.384 47.8361 17.384ZM48.0281 16.424C48.8761 16.424 49.5481 16.184 50.0441 15.704C50.5401 15.224 50.8921 14.6 51.1001 13.832C51.3241 13.064 51.4361 12.256 51.4361 11.408C51.4361 10.688 51.3641 9.984 51.2201 9.296C51.0921 8.592 50.8841 7.96 50.5961 7.4C50.3081 6.824 49.9321 6.368 49.4681 6.032C49.0201 5.696 48.4761 5.528 47.8361 5.528C47.0041 5.528 46.3241 5.768 45.7961 6.248C45.2681 6.728 44.8761 7.352 44.6201 8.12C44.3801 8.888 44.2601 9.712 44.2601 10.592C44.2601 11.584 44.3961 12.528 44.6681 13.424C44.9401 14.304 45.3561 15.024 45.9161 15.584C46.4761 16.144 47.1801 16.424 48.0281 16.424ZM58.3232 17V16.28C58.8192 16.28 59.1632 16.16 59.3552 15.92C59.5472 15.664 59.6592 15.32 59.6912 14.888C59.7392 14.44 59.7632 13.928 59.7632 13.352V7.544C59.7632 7.224 59.7632 6.96 59.7632 6.752C59.7792 6.528 59.8112 6.28 59.8592 6.008H58.1552C57.5152 6.008 57.0432 6.192 56.7392 6.56C56.4512 6.928 56.3072 7.616 56.3072 8.624H55.3952L55.4912 5H66.0992L66.2192 8.624H65.3072C65.2912 7.616 65.1392 6.928 64.8512 6.56C64.5792 6.192 64.0672 6.008 63.3152 6.008H61.8272V14.456C61.8272 14.776 61.8192 15.064 61.8032 15.32C61.8032 15.56 61.7792 15.816 61.7312 16.088L63.2432 16.016V17H58.3232ZM72.75 5.72C72.254 5.72 71.91 5.848 71.718 6.104C71.526 6.344 71.414 6.688 71.382 7.136C71.35 7.568 71.326 8.072 71.31 8.648L71.286 13.76L77.31 6.344C77.31 6.2 77.326 6.056 77.358 5.912L75.846 5.984V5H80.742V5.72C80.262 5.72 79.918 5.848 79.71 6.104C79.518 6.344 79.406 6.688 79.374 7.136C79.342 7.568 79.326 8.072 79.326 8.648L79.278 14.456C79.278 14.776 79.27 15.064 79.254 15.32C79.254 15.56 79.238 15.816 79.206 16.088L80.718 16.016V17H75.798V16.28C76.294 16.28 76.638 16.16 76.83 15.92C77.022 15.664 77.134 15.32 77.166 14.888C77.214 14.44 77.238 13.928 77.238 13.352L77.262 7.928L71.262 15.44C71.246 15.664 71.222 15.88 71.19 16.088L72.702 16.016V17H67.806V16.28C68.302 16.28 68.646 16.16 68.838 15.92C69.03 15.664 69.142 15.32 69.174 14.888C69.222 14.44 69.246 13.928 69.246 13.352V7.544C69.246 7.224 69.246 6.944 69.246 6.704C69.262 6.448 69.294 6.184 69.342 5.912L67.83 5.984V5H72.75V5.72ZM82.8529 17V16.28C83.3489 16.28 83.6929 16.16 83.8849 15.92C84.0769 15.664 84.1889 15.32 84.2209 14.888C84.2689 14.44 84.2929 13.928 84.2929 13.352V7.544C84.2929 7.224 84.2929 6.944 84.2929 6.704C84.3089 6.448 84.3409 6.184 84.3889 5.912L82.8769 5.984V5H95.5009V5.72C95.0209 5.72 94.6769 5.848 94.4689 6.104C94.2769 6.344 94.1649 6.688 94.1329 7.136C94.1009 7.568 94.0849 8.072 94.0849 8.648L94.0369 14.456C94.0369 14.776 94.0289 15.064 94.0129 15.32C94.0129 15.56 93.9889 15.816 93.9409 16.088L95.4529 16.016V17H90.5329V16.28C91.0289 16.28 91.3729 16.16 91.5649 15.92C91.7569 15.664 91.8689 15.32 91.9009 14.888C91.9489 14.44 91.9729 13.928 91.9729 13.352L91.9969 7.544C91.9969 7.224 91.9969 6.944 91.9969 6.704C92.0129 6.448 92.0449 6.184 92.0929 5.912L87.8209 5.96C87.3249 5.96 86.9809 6.064 86.7889 6.272C86.5969 6.48 86.4849 6.784 86.4529 7.184C86.4209 7.584 86.3969 8.072 86.3809 8.648L86.3569 14.456C86.3569 14.776 86.3489 15.064 86.3329 15.32C86.3329 15.56 86.3089 15.816 86.2609 16.088L87.7729 16.016V17H82.8529Z" fill="#EBECB0"/>
</svg>
