<?xml version="1.0" standalone="no"?>
<!DOCTYPE svg PUBLIC "-//W3C//DTD SVG 20010904//EN"
 "http://www.w3.org/TR/2001/REC-SVG-20010904/DTD/svg10.dtd">
<svg version="1.0" xmlns="http://www.w3.org/2000/svg"
 width="256.000000pt" height="256.000000pt" viewBox="0 0 256.000000 256.000000"
 preserveAspectRatio="xMidYMid meet">

<g transform="translate(0.000000,256.000000) scale(0.100000,-0.100000)"
fill="#4B261D" stroke="none">
<path d="M1245 2547 c-11 -7 -171 -165 -355 -352 -184 -187 -439 -446 -567
-575 -209 -211 -233 -239 -233 -269 0 -23 9 -41 29 -62 29 -28 32 -29 130 -29
l101 0 0 -533 0 -533 26 -52 c32 -64 83 -108 148 -127 72 -22 1449 -22 1519
-1 64 19 121 67 151 128 l26 52 0 533 0 533 89 0 c103 0 133 9 157 45 36 55
35 57 -561 662 -308 312 -569 573 -580 580 -11 7 -29 12 -40 12 -11 0 -29 -5
-40 -12z m-360 -1122 c32 -31 32 -67 0 -129 -39 -78 -35 -134 20 -238 68 -130
76 -245 25 -362 -39 -91 -107 -123 -158 -76 -36 34 -38 66 -8 127 42 85 37
142 -21 254 l-48 91 0 101 c0 86 4 110 24 155 43 96 115 129 166 77z m453 5
c35 -33 37 -64 8 -129 -40 -89 -36 -136 21 -250 48 -94 48 -95 48 -195 0 -88
-3 -108 -26 -157 -36 -76 -60 -99 -104 -99 -43 0 -85 37 -85 74 0 13 11 48 25
78 39 84 35 134 -22 247 -48 94 -48 95 -48 195 0 88 3 108 26 157 15 31 37 66
50 77 29 28 78 28 107 2z m463 -9 c36 -36 36 -57 3 -121 -34 -64 -35 -144 -3
-203 73 -135 73 -137 74 -242 0 -84 -4 -108 -23 -150 -47 -103 -113 -135 -167
-80 -31 30 -32 72 -5 118 42 72 36 168 -16 247 -82 124 -74 333 16 430 38 40
81 41 121 1z"/>
</g>
</svg>
