<svg width="40" height="40" viewBox="0 0 40 40" fill="none" xmlns="http://www.w3.org/2000/svg">
<g clip-path="url(#clip0)">
<path d="M34.1421 6.15138C30.3646 2.4166 25.3421 0.359863 20 0.359863C14.6579 0.359863 9.63539 2.4166 5.85789 6.15138C2.08031 9.88607 0 14.8517 0 20.1332C0 25.4148 2.08031 30.3804 5.85789 34.1151C9.63539 37.8499 14.6579 39.9066 20 39.9066C25.3421 39.9066 30.3646 37.8499 34.1421 34.1151C37.9196 30.3803 40 25.4148 40 20.1332C40 14.8517 37.9197 9.88607 34.1421 6.15138ZM20 38.6578C9.66844 38.6578 1.26312 30.3477 1.26312 20.1332C1.26312 9.91874 9.66844 1.60868 20 1.60868C30.3316 1.60868 38.7369 9.91874 38.7369 20.1332C38.7369 30.3477 30.3316 38.6578 20 38.6578Z" fill="#FEFFE2"/>
<path d="M31.3272 7.97864C31.1333 7.8342 30.8727 7.81257 30.6571 7.92287L6.23603 20.4113C6.02494 20.5192 5.89298 20.7352 5.89454 20.9702C5.89611 21.2052 6.03103 21.4194 6.24369 21.5245L12.6315 24.682V30.9389C12.6315 31.1027 12.6878 31.2647 12.8018 31.3836C12.9279 31.5151 13.0955 31.5811 13.2631 31.5811C13.3688 31.5811 13.4744 31.555 13.5699 31.5025L20.8781 27.4884L26.4716 29.8584C26.5906 29.9088 26.7223 29.9297 26.8496 29.9062C27.1117 29.8578 27.3066 29.6593 27.3563 29.414L28.7715 22.4179C28.8496 22.0315 28.5507 21.671 28.1521 21.671C27.851 21.6708 27.5919 21.8809 27.5328 22.1727L26.2702 28.4143L21.0909 26.2198C20.9114 26.1437 20.7063 26.1541 20.5353 26.2478L13.8947 29.8953V24.2961C13.8947 24.0596 13.7595 23.8434 13.5456 23.7375L7.91939 20.9564L30.0702 9.62886L28.1479 19.1311C28.0698 19.5176 28.3687 19.878 28.7673 19.878C29.0683 19.878 29.3275 19.6679 29.3867 19.3761L31.5666 8.5998C31.6142 8.36453 31.5211 8.123 31.3272 7.97864Z" fill="#FEFFE2"/>
<path d="M27.2325 13.0856C27.034 12.8371 26.6787 12.7747 26.4058 12.9409L15.4585 19.6014C15.2717 19.715 15.158 19.9164 15.158 20.1332V26.7937C15.1579 27.0834 15.3593 27.3349 15.6443 27.4015C15.6928 27.4128 15.7415 27.4183 15.7896 27.4183C16.0245 27.4183 16.2456 27.2881 16.3543 27.073L18.8348 22.1683L27.1834 13.9143C27.4099 13.6903 27.431 13.3341 27.2325 13.0856ZM17.8691 21.3568C17.8212 21.4042 17.7812 21.459 17.7509 21.519L16.4211 24.1485V20.4821L22.4864 16.7918L17.8691 21.3568Z" fill="#FEFFE2"/>
</g>
<defs>
<clipPath id="clip0">
<rect width="40" height="39.5467" fill="white" transform="translate(0 0.359863)"/>
</clipPath>
</defs>
</svg>
